<?xml version="1.0" encoding="utf-8"?>
<!-- Generator: Adobe Illustrator 23.0.6, SVG Export Plug-In . SVG Version: 6.00 Build 0)  -->
<svg version="1.1" id="Layer_1" xmlns="http://www.w3.org/2000/svg" xmlns:xlink="http://www.w3.org/1999/xlink" x="0px" y="0px"
	 viewBox="0 0 200 200" style="enable-background:new 0 0 200 200;" xml:space="preserve">
<style type="text/css">
	.st0{fill:#4E4E4E;}
</style>
<g>
	<g>
		<path class="st0" d="M104.52,192.5c-3.01,0-6.03,0-9.04,0c-0.33-0.06-0.66-0.16-1-0.18c-9.33-0.54-18.39-2.43-27.12-5.77
			c-18.34-7.01-33.06-18.66-44.08-34.9c-8.54-12.59-13.6-26.49-15.22-41.64c-0.2-1.83-0.38-3.67-0.56-5.5c0-3.01,0-6.03,0-9.04
			c0.06-0.4,0.16-0.8,0.18-1.2c0.45-7.49,1.75-14.83,4.04-21.96c6.57-20.45,18.73-36.79,36.45-48.91
			C60.79,14.78,74.77,9.7,89.98,8.06c1.83-0.2,3.67-0.38,5.5-0.56c3.01,0,6.03,0,9.04,0c1.87,0.19,3.74,0.37,5.61,0.57
			c12.11,1.28,23.51,4.86,34.17,10.72c15.12,8.31,27.06,19.94,35.74,34.85c6.55,11.25,10.52,23.37,11.89,36.33
			c0.19,1.83,0.38,3.67,0.56,5.5c0,3.01,0,6.03,0,9.04c-0.06,0.37-0.16,0.73-0.18,1.1c-0.44,7.52-1.73,14.9-4.05,22.07
			c-7.35,22.69-21.3,40.16-41.83,52.29c-11.21,6.63-23.35,10.55-36.31,11.94C108.26,192.13,106.39,192.31,104.52,192.5z
			 M44.01,161.3c0.09-0.36,0.18-0.62,0.23-0.88c1.68-8.12,5.22-15.36,10.68-21.58c8.96-10.21,20.07-15.86,33.88-15.72
			c7.81,0.08,15.62,0.02,23.43,0.01c4.24-0.01,8.42,0.51,12.43,1.91c15.23,5.35,24.99,16.02,30.02,31.2
			c0.54,1.63,0.89,3.33,1.34,5.03c21.09-18.61,34.02-51.67,23.48-86c-10.62-34.58-43.07-58.49-79.45-58.53
			C63.74,16.71,31.2,40.6,20.52,75.18C9.96,109.4,22.76,142.54,44.01,161.3z"/>
		<path class="st0" d="M99.96,113.84c-18.02-0.05-32.51-14.65-32.41-32.66c0.1-17.78,14.68-32.21,32.49-32.17
			c17.89,0.04,32.49,14.61,32.41,32.36C132.37,99.43,117.91,113.89,99.96,113.84z"/>
	</g>
</g>
</svg>
