<?xml version="1.0" encoding="utf-8"?>
<!-- Generator: Adobe Illustrator 23.0.6, SVG Export Plug-In . SVG Version: 6.00 Build 0)  -->
<svg version="1.1" id="Layer_1" xmlns="http://www.w3.org/2000/svg" xmlns:xlink="http://www.w3.org/1999/xlink" x="0px" y="0px"
	 viewBox="0 0 200 200" style="enable-background:new 0 0 200 200;" xml:space="preserve">
<style type="text/css">
	.st0{fill:#4E4E4E;}
</style>
<g>
	<path class="st0" d="M184.15,43.9h-40.52V31.43c-0.01-8.6-6.98-15.57-15.58-15.58h-56.1c-8.6,0.01-15.57,6.98-15.58,15.58V43.9
		H15.85c-5.16,0-9.35,4.19-9.35,9.35v69.38c0.02,3.95,2.51,7.47,6.23,8.8v43.37c0,5.16,4.19,9.35,9.35,9.35h155.83
		c5.16,0,9.35-4.19,9.35-9.35v-43.37c3.72-1.33,6.22-4.85,6.23-8.8V53.25C193.5,48.09,189.31,43.9,184.15,43.9z M62.6,31.43
		c0-5.16,4.19-9.35,9.35-9.35h56.1c5.16,0,9.35,4.19,9.35,9.35V43.9h-6.23V31.43c0-1.72-1.4-3.12-3.12-3.12h-56.1
		c-1.72,0-3.12,1.4-3.12,3.12V43.9H62.6V31.43z M124.93,43.9H75.07v-9.35h49.87V43.9z M181.03,174.8c0,1.72-1.4,3.12-3.12,3.12
		H22.08c-1.72,0-3.12-1.4-3.12-3.12v-42.3l68.57,9.46v7.91c0,5.16,4.19,9.35,9.35,9.35h6.23c5.16,0,9.35-4.19,9.35-9.35v-7.91
		l68.57-9.46V174.8z M106.23,149.87c0,1.72-1.4,3.12-3.12,3.12h-6.23c-1.72,0-3.12-1.4-3.12-3.12v-18.7c0-1.72,1.4-3.12,3.12-3.12
		h6.23c1.72,0,3.12,1.4,3.12,3.12V149.87z M187.27,122.63c0,1.55-1.14,2.87-2.68,3.09l-0.86,0.12l-71.26,9.83v-4.49
		c0-5.16-4.19-9.35-9.35-9.35h-6.23c-5.16,0-9.35,4.19-9.35,9.35v4.49l-72.12-9.95c-1.54-0.22-2.68-1.53-2.68-3.09V53.25
		c0-1.72,1.4-3.12,3.12-3.12h168.3c1.72,0,3.12,1.4,3.12,3.12V122.63z"/>
</g>
</svg>
