<?xml version="1.0" encoding="utf-8"?>
<!-- Generator: Adobe Illustrator 23.0.6, SVG Export Plug-In . SVG Version: 6.00 Build 0)  -->
<svg version="1.1" id="Layer_1" xmlns="http://www.w3.org/2000/svg" xmlns:xlink="http://www.w3.org/1999/xlink" x="0px" y="0px"
	 viewBox="0 0 200 200" style="enable-background:new 0 0 200 200;" xml:space="preserve">
<style type="text/css">
	.st0{fill:#4E4E4E;}
</style>
<g>
	<g>
		<path class="st0" d="M153.85,93.76c-1.01,20.83-10.35,36.55-28.75,46.7c-0.81,0.45-1.09,0.9-1.08,1.8
			c0.04,7.07,0.03,14.13,0.02,21.2c-0.02,6.54-2.94,11.37-8.68,14.49c-0.54,0.29-0.76,0.6-0.74,1.21c0.04,1.31,0.03,2.62,0.01,3.93
			c-0.07,5.29-3.48,9.46-8.72,10.01c-3.51,0.36-7.11,0.32-10.62-0.05c-4.64-0.49-8.02-4.36-8.37-9.03c-0.12-1.6-0.01-3.22-0.1-4.82
			c-0.02-0.42-0.33-1-0.68-1.2c-5.79-3.22-8.69-8.11-8.68-14.74c0.01-6.99-0.02-13.98,0.03-20.98c0.01-0.97-0.34-1.43-1.17-1.88
			c-15.54-8.41-25.12-21.27-27.88-38.73C44.08,74.2,61.38,48.57,88.33,42c27.52-6.7,55.93,10.05,63.48,37.43
			C153.1,84.1,153.77,88.86,153.85,93.76z M116.36,147.36c0-3.13,0.11-6.16-0.04-9.18c-0.08-1.59,0.43-2.28,1.91-2.92
			c23.08-9.9,34.1-35.84,24.53-58.84c-7.04-16.9-20.16-26.5-38.42-28.19c-14.28-1.31-26.53,3.71-36.52,14.02
			c-15.46,15.94-16.69,41.69-2.94,59.11c5.1,6.46,11.45,11.22,19.08,14.28c0.73,0.29,1.04,0.66,1,1.47
			c-0.07,1.57-0.02,3.14-0.02,4.71c0,1.82,0,3.64,0,5.5c4.04,0,7.95,0,11.96,0c0-0.52,0-0.96,0-1.41c0-6.13-0.02-12.27,0.02-18.4
			c0.01-1.19-0.01-2.28-1.05-3.11c-0.33-0.26-0.52-0.73-0.73-1.12c-3.48-6.36-6.84-12.8-10.46-19.08c-2.46-4.28,0.62-8.69,5.06-8.62
			c0.04,0,0.07,0,0.11,0c7.14,0,14.29,0.06,21.43-0.02c4.66-0.05,7.74,4.5,5.2,8.7c-2.59,4.28-4.78,8.8-7.22,13.18
			c-1.49,2.66-3.13,5.24-4.69,7.87c-0.12,0.21-0.17,0.49-0.17,0.74c-0.01,6.84,0,13.69-0.02,20.53c0,0.84,0.45,0.86,1.07,0.86
			c3.33-0.01,6.66,0,9.98-0.01C115.69,147.43,115.95,147.39,116.36,147.36z M85.01,154.96c0,3.4-0.21,6.7,0.05,9.96
			c0.32,4.06,3.77,7.18,7.83,7.26c5.19,0.1,10.39,0.1,15.58,0c3.93-0.08,7.46-3.16,7.82-7.05c0.3-3.29,0.09-6.63,0.1-9.95
			c0-0.05-0.09-0.11-0.17-0.21C105.87,154.96,95.5,154.96,85.01,154.96z M92.65,103.11c2.7,4.93,5.29,9.65,8,14.6
			c2.7-4.99,5.25-9.72,7.89-14.6C103.15,103.11,98.04,103.11,92.65,103.11z M106.99,179.7c-4.14,0-8.12-0.01-12.11,0.03
			c-0.22,0-0.62,0.4-0.64,0.64c-0.07,1-0.07,2.01,0,3.02c0.1,1.31,0.98,2.31,2.28,2.35c2.75,0.09,5.52,0.08,8.27-0.01
			c1.22-0.04,2.09-0.99,2.17-2.18C107.06,182.32,106.99,181.09,106.99,179.7z"/>
		<path class="st0" d="M55.37,41.03c-1.66,1.66-3.4,3.39-5.09,5.09c-4.55-4.57-9.15-9.19-13.66-13.72c1.66-1.66,3.42-3.41,5.11-5.09
			C46.17,31.78,50.79,36.42,55.37,41.03z"/>
		<path class="st0" d="M149.83,45.98c-1.65-1.65-3.39-3.38-5.06-5.06c4.54-4.53,9.15-9.14,13.72-13.69
			c1.62,1.66,3.35,3.44,4.99,5.11C159.02,36.8,154.39,41.43,149.83,45.98z"/>
		<path class="st0" d="M103.73,26.37c-2.49,0-4.94,0-7.47,0c0-6.56,0-13.1,0-19.71c2.48,0,4.93,0,7.47,0
			C103.73,13.21,103.73,19.75,103.73,26.37z"/>
		<path class="st0" d="M30.17,82.98c0,2.54,0,4.98,0,7.5c-6.58,0-13.09,0-19.67,0c0-2.51,0-4.96,0-7.5
			C17.04,82.98,23.55,82.98,30.17,82.98z"/>
		<path class="st0" d="M169.82,90.46c0-2.54,0-4.99,0-7.5c6.58,0,13.1,0,19.68,0c0,2.52,0,4.96,0,7.5
			C182.95,90.46,176.43,90.46,169.82,90.46z"/>
	</g>
</g>
</svg>
