<?xml version="1.0" encoding="utf-8"?>
<!-- Generator: Adobe Illustrator 23.0.6, SVG Export Plug-In . SVG Version: 6.00 Build 0)  -->
<svg version="1.1" id="Layer_1" xmlns="http://www.w3.org/2000/svg" xmlns:xlink="http://www.w3.org/1999/xlink" x="0px" y="0px"
	 viewBox="0 0 200 200" style="enable-background:new 0 0 200 200;" xml:space="preserve">
<style type="text/css">
	.st0{fill:#989798;}
</style>
<g>
	<path class="st0" d="M30.93,193.5c-5.14,0-10.3,0-15.43,0c-2.21-23.32,12.46-60.24,50.81-77.91
		C48.37,101.77,39.11,83.9,40.64,61.26c1.09-16.05,8.07-29.44,20.07-40.04c23.52-20.77,60.02-19.4,81.65,3.07
		c12.72,13.21,18.3,29.11,16.7,47.47c-1.6,18.42-10.92,32.44-25.32,43.58c34.84,20.38,52.66,47.76,50.84,78.1
		c-5.13,0-10.29,0-16.05,0c-1.35-22.39-9.94-41.22-28.4-54.78c-12.27-9.02-26.16-13.31-41.31-13.14
		C69,125.86,34.26,147.41,30.93,193.5z M100.24,23.23C77,23.08,57.34,42.13,57.1,65.05c-0.25,23.94,18.62,43.38,42.49,43.77
		c23.05,0.38,43.23-19.48,43.19-42.49C142.74,42.71,123.66,23.39,100.24,23.23z"/>
</g>
</svg>
