<?xml version="1.0" encoding="utf-8"?>
<!-- Generator: Adobe Illustrator 23.0.6, SVG Export Plug-In . SVG Version: 6.00 Build 0)  -->
<svg version="1.1" id="Layer_1" xmlns="http://www.w3.org/2000/svg" xmlns:xlink="http://www.w3.org/1999/xlink" x="0px" y="0px"
	 viewBox="0 0 200 200" style="enable-background:new 0 0 200 200;" xml:space="preserve">
<style type="text/css">
	.st0{fill:#989798;}
</style>
<g>
	<g>
		<path class="st0" d="M121.26,130.45c-43.98,23.59-80.24,18.62-103.72-12.61C-2.98,90.57-0.02,50.66,24.33,26.18
			c24.6-24.74,64.34-27.64,92.43-6.76c30.54,22.7,35.8,59.26,15.97,96.82c18.59,19.97,36.47,39.2,54.39,58.41
			c2.4,2.58,5.92,4.59,7.22,7.6c1.54,3.58,1.25,7.96,1.75,12c-4.26-0.23-9.95,1.23-12.52-0.97c-11.42-9.8-22.16-20.43-32.72-31.17
			C140.54,151.61,130.74,140.62,121.26,130.45z M74.25,130.26c30.02,0.1,54.52-24.19,54.67-54.22
			c0.15-29.54-24.79-54.62-54.45-54.74C44.64,21.18,19.99,45.84,20,75.78C20.02,106.03,44.04,130.16,74.25,130.26z"/>
	</g>
</g>
</svg>
